<mxfile host="app.diagrams.net" modified="2023-09-19T04:07:00.369Z" agent="Mozilla/5.0 (Windows NT 10.0; Win64; x64; rv:109.0) Gecko/20100101 Firefox/117.0" etag="8pJ5762ht0D2IyRrNuB-" version="21.6.6" type="google">
  <diagram name="Page-1" id="HE4HPh8AaEs0XmG9j-GL">
    <mxGraphModel grid="1" page="1" gridSize="10" guides="1" tooltips="1" connect="1" arrows="1" fold="1" pageScale="1" pageWidth="850" pageHeight="1100" math="0" shadow="0">
      <root>
        <mxCell id="0" />
        <mxCell id="1" parent="0" />
        <mxCell id="LYU97EAYJ5dtiRpDV7SD-29" value="" style="edgeStyle=orthogonalEdgeStyle;rounded=0;orthogonalLoop=1;jettySize=auto;html=1;" edge="1" parent="1" source="LYU97EAYJ5dtiRpDV7SD-18" target="LYU97EAYJ5dtiRpDV7SD-19">
          <mxGeometry relative="1" as="geometry" />
        </mxCell>
        <mxCell id="LYU97EAYJ5dtiRpDV7SD-30" value="A" style="edgeLabel;html=1;align=center;verticalAlign=middle;resizable=0;points=[];" connectable="0" vertex="1" parent="LYU97EAYJ5dtiRpDV7SD-29">
          <mxGeometry x="-0.12" y="2" relative="1" as="geometry">
            <mxPoint x="6" y="-8" as="offset" />
          </mxGeometry>
        </mxCell>
        <mxCell id="LYU97EAYJ5dtiRpDV7SD-35" value="" style="edgeStyle=orthogonalEdgeStyle;rounded=0;orthogonalLoop=1;jettySize=auto;html=1;" edge="1" parent="1" source="LYU97EAYJ5dtiRpDV7SD-18" target="LYU97EAYJ5dtiRpDV7SD-20">
          <mxGeometry relative="1" as="geometry" />
        </mxCell>
        <mxCell id="LYU97EAYJ5dtiRpDV7SD-36" value="C" style="edgeLabel;html=1;align=center;verticalAlign=middle;resizable=0;points=[];" connectable="0" vertex="1" parent="LYU97EAYJ5dtiRpDV7SD-35">
          <mxGeometry x="-0.3429" y="2" relative="1" as="geometry">
            <mxPoint x="8" y="7" as="offset" />
          </mxGeometry>
        </mxCell>
        <mxCell id="LYU97EAYJ5dtiRpDV7SD-18" value="1" style="ellipse;whiteSpace=wrap;html=1;aspect=fixed;" vertex="1" parent="1">
          <mxGeometry x="40" y="40" width="80" height="80" as="geometry" />
        </mxCell>
        <mxCell id="LYU97EAYJ5dtiRpDV7SD-37" value="" style="edgeStyle=orthogonalEdgeStyle;rounded=0;orthogonalLoop=1;jettySize=auto;html=1;" edge="1" parent="1" source="LYU97EAYJ5dtiRpDV7SD-19" target="LYU97EAYJ5dtiRpDV7SD-23">
          <mxGeometry relative="1" as="geometry" />
        </mxCell>
        <mxCell id="LYU97EAYJ5dtiRpDV7SD-38" value="D" style="edgeLabel;html=1;align=center;verticalAlign=middle;resizable=0;points=[];" connectable="0" vertex="1" parent="LYU97EAYJ5dtiRpDV7SD-37">
          <mxGeometry x="-0.219" y="2" relative="1" as="geometry">
            <mxPoint x="9" y="-8" as="offset" />
          </mxGeometry>
        </mxCell>
        <mxCell id="LYU97EAYJ5dtiRpDV7SD-39" value="" style="edgeStyle=orthogonalEdgeStyle;rounded=0;orthogonalLoop=1;jettySize=auto;html=1;" edge="1" parent="1" source="LYU97EAYJ5dtiRpDV7SD-19" target="LYU97EAYJ5dtiRpDV7SD-21">
          <mxGeometry relative="1" as="geometry" />
        </mxCell>
        <mxCell id="LYU97EAYJ5dtiRpDV7SD-40" value="E" style="edgeLabel;html=1;align=center;verticalAlign=middle;resizable=0;points=[];" connectable="0" vertex="1" parent="LYU97EAYJ5dtiRpDV7SD-39">
          <mxGeometry x="-0.2857" y="2" relative="1" as="geometry">
            <mxPoint x="-12" y="15" as="offset" />
          </mxGeometry>
        </mxCell>
        <mxCell id="LYU97EAYJ5dtiRpDV7SD-19" value="2" style="ellipse;whiteSpace=wrap;html=1;aspect=fixed;" vertex="1" parent="1">
          <mxGeometry x="220" y="40" width="80" height="80" as="geometry" />
        </mxCell>
        <mxCell id="LYU97EAYJ5dtiRpDV7SD-41" value="" style="edgeStyle=orthogonalEdgeStyle;rounded=0;orthogonalLoop=1;jettySize=auto;html=1;" edge="1" parent="1" source="LYU97EAYJ5dtiRpDV7SD-20" target="LYU97EAYJ5dtiRpDV7SD-21">
          <mxGeometry relative="1" as="geometry" />
        </mxCell>
        <mxCell id="LYU97EAYJ5dtiRpDV7SD-42" value="F" style="edgeLabel;html=1;align=center;verticalAlign=middle;resizable=0;points=[];" connectable="0" vertex="1" parent="LYU97EAYJ5dtiRpDV7SD-41">
          <mxGeometry x="0.04" relative="1" as="geometry">
            <mxPoint x="-2" y="10" as="offset" />
          </mxGeometry>
        </mxCell>
        <mxCell id="LYU97EAYJ5dtiRpDV7SD-43" value="" style="edgeStyle=orthogonalEdgeStyle;rounded=0;orthogonalLoop=1;jettySize=auto;html=1;" edge="1" parent="1" source="LYU97EAYJ5dtiRpDV7SD-20" target="LYU97EAYJ5dtiRpDV7SD-22">
          <mxGeometry relative="1" as="geometry" />
        </mxCell>
        <mxCell id="LYU97EAYJ5dtiRpDV7SD-44" value="G" style="edgeLabel;html=1;align=center;verticalAlign=middle;resizable=0;points=[];" connectable="0" vertex="1" parent="LYU97EAYJ5dtiRpDV7SD-43">
          <mxGeometry y="3" relative="1" as="geometry">
            <mxPoint x="7" as="offset" />
          </mxGeometry>
        </mxCell>
        <mxCell id="LYU97EAYJ5dtiRpDV7SD-20" value="3" style="ellipse;whiteSpace=wrap;html=1;aspect=fixed;" vertex="1" parent="1">
          <mxGeometry x="40" y="190" width="80" height="80" as="geometry" />
        </mxCell>
        <mxCell id="LYU97EAYJ5dtiRpDV7SD-21" value="4" style="ellipse;whiteSpace=wrap;html=1;aspect=fixed;" vertex="1" parent="1">
          <mxGeometry x="220" y="190" width="80" height="80" as="geometry" />
        </mxCell>
        <mxCell id="LYU97EAYJ5dtiRpDV7SD-53" style="edgeStyle=orthogonalEdgeStyle;rounded=0;orthogonalLoop=1;jettySize=auto;html=1;entryX=0;entryY=0.5;entryDx=0;entryDy=0;" edge="1" parent="1" source="LYU97EAYJ5dtiRpDV7SD-22" target="LYU97EAYJ5dtiRpDV7SD-24">
          <mxGeometry relative="1" as="geometry" />
        </mxCell>
        <mxCell id="LYU97EAYJ5dtiRpDV7SD-54" value="K" style="edgeLabel;html=1;align=center;verticalAlign=middle;resizable=0;points=[];" connectable="0" vertex="1" parent="LYU97EAYJ5dtiRpDV7SD-53">
          <mxGeometry x="-0.1368" y="1" relative="1" as="geometry">
            <mxPoint x="17" y="-9" as="offset" />
          </mxGeometry>
        </mxCell>
        <mxCell id="LYU97EAYJ5dtiRpDV7SD-22" value="5" style="ellipse;whiteSpace=wrap;html=1;aspect=fixed;" vertex="1" parent="1">
          <mxGeometry x="40" y="340" width="80" height="80" as="geometry" />
        </mxCell>
        <mxCell id="LYU97EAYJ5dtiRpDV7SD-55" style="edgeStyle=orthogonalEdgeStyle;rounded=0;orthogonalLoop=1;jettySize=auto;html=1;entryX=0.5;entryY=0;entryDx=0;entryDy=0;" edge="1" parent="1" source="LYU97EAYJ5dtiRpDV7SD-23" target="LYU97EAYJ5dtiRpDV7SD-24">
          <mxGeometry relative="1" as="geometry" />
        </mxCell>
        <mxCell id="LYU97EAYJ5dtiRpDV7SD-56" value="L" style="edgeLabel;html=1;align=center;verticalAlign=middle;resizable=0;points=[];" connectable="0" vertex="1" parent="LYU97EAYJ5dtiRpDV7SD-55">
          <mxGeometry x="-0.1545" y="-2" relative="1" as="geometry">
            <mxPoint x="-13" y="17" as="offset" />
          </mxGeometry>
        </mxCell>
        <mxCell id="LYU97EAYJ5dtiRpDV7SD-23" value="6" style="ellipse;whiteSpace=wrap;html=1;aspect=fixed;" vertex="1" parent="1">
          <mxGeometry x="405" y="40" width="80" height="80" as="geometry" />
        </mxCell>
        <mxCell id="LYU97EAYJ5dtiRpDV7SD-24" value="7" style="ellipse;whiteSpace=wrap;html=1;aspect=fixed;" vertex="1" parent="1">
          <mxGeometry x="405" y="340" width="80" height="80" as="geometry" />
        </mxCell>
        <mxCell id="LYU97EAYJ5dtiRpDV7SD-33" value="" style="endArrow=classic;html=1;rounded=0;exitX=1;exitY=1;exitDx=0;exitDy=0;entryX=0;entryY=0;entryDx=0;entryDy=0;" edge="1" parent="1" source="LYU97EAYJ5dtiRpDV7SD-18" target="LYU97EAYJ5dtiRpDV7SD-21">
          <mxGeometry width="50" height="50" relative="1" as="geometry">
            <mxPoint x="380" y="250" as="sourcePoint" />
            <mxPoint x="430" y="200" as="targetPoint" />
          </mxGeometry>
        </mxCell>
        <mxCell id="LYU97EAYJ5dtiRpDV7SD-34" value="B" style="edgeLabel;html=1;align=center;verticalAlign=middle;resizable=0;points=[];" connectable="0" vertex="1" parent="LYU97EAYJ5dtiRpDV7SD-33">
          <mxGeometry x="-0.0231" relative="1" as="geometry">
            <mxPoint x="-9" y="6" as="offset" />
          </mxGeometry>
        </mxCell>
        <mxCell id="LYU97EAYJ5dtiRpDV7SD-45" value="" style="endArrow=classic;html=1;rounded=0;exitX=1;exitY=0;exitDx=0;exitDy=0;entryX=0;entryY=1;entryDx=0;entryDy=0;" edge="1" parent="1" source="LYU97EAYJ5dtiRpDV7SD-21" target="LYU97EAYJ5dtiRpDV7SD-23">
          <mxGeometry width="50" height="50" relative="1" as="geometry">
            <mxPoint x="380" y="250" as="sourcePoint" />
            <mxPoint x="430" y="200" as="targetPoint" />
          </mxGeometry>
        </mxCell>
        <mxCell id="LYU97EAYJ5dtiRpDV7SD-46" value="H" style="edgeLabel;html=1;align=center;verticalAlign=middle;resizable=0;points=[];" connectable="0" vertex="1" parent="LYU97EAYJ5dtiRpDV7SD-45">
          <mxGeometry x="-0.0255" y="1" relative="1" as="geometry">
            <mxPoint x="-10" y="-5" as="offset" />
          </mxGeometry>
        </mxCell>
        <mxCell id="LYU97EAYJ5dtiRpDV7SD-49" value="" style="endArrow=classic;html=1;rounded=0;exitX=0;exitY=1;exitDx=0;exitDy=0;entryX=1;entryY=0;entryDx=0;entryDy=0;" edge="1" parent="1" source="LYU97EAYJ5dtiRpDV7SD-21" target="LYU97EAYJ5dtiRpDV7SD-22">
          <mxGeometry width="50" height="50" relative="1" as="geometry">
            <mxPoint x="380" y="250" as="sourcePoint" />
            <mxPoint x="430" y="200" as="targetPoint" />
          </mxGeometry>
        </mxCell>
        <mxCell id="LYU97EAYJ5dtiRpDV7SD-50" value="J" style="edgeLabel;html=1;align=center;verticalAlign=middle;resizable=0;points=[];" connectable="0" vertex="1" parent="LYU97EAYJ5dtiRpDV7SD-49">
          <mxGeometry x="-0.0284" relative="1" as="geometry">
            <mxPoint x="18" y="6" as="offset" />
          </mxGeometry>
        </mxCell>
        <mxCell id="LYU97EAYJ5dtiRpDV7SD-51" value="" style="endArrow=classic;html=1;rounded=0;exitX=1;exitY=1;exitDx=0;exitDy=0;entryX=0;entryY=0;entryDx=0;entryDy=0;" edge="1" parent="1" source="LYU97EAYJ5dtiRpDV7SD-21" target="LYU97EAYJ5dtiRpDV7SD-24">
          <mxGeometry width="50" height="50" relative="1" as="geometry">
            <mxPoint x="380" y="250" as="sourcePoint" />
            <mxPoint x="430" y="200" as="targetPoint" />
          </mxGeometry>
        </mxCell>
        <mxCell id="LYU97EAYJ5dtiRpDV7SD-52" value="I" style="edgeLabel;html=1;align=center;verticalAlign=middle;resizable=0;points=[];" connectable="0" vertex="1" parent="LYU97EAYJ5dtiRpDV7SD-51">
          <mxGeometry x="0.068" relative="1" as="geometry">
            <mxPoint y="-18" as="offset" />
          </mxGeometry>
        </mxCell>
      </root>
    </mxGraphModel>
  </diagram>
</mxfile>
